<svg version="1.0" xmlns="http://www.w3.org/2000/svg"
 width="200.000000pt" height="200.000000pt" viewBox="0 0 200.000000 200.000000"
 preserveAspectRatio="xMidYMid meet">
    <g transform="translate(0.000000,200.000000) scale(0.100000,-0.100000)" fill="#156999" stroke="none">
        <path d="M780 1494 c-13 -7 -30 -21 -37 -30 -15 -21 -17 -117 -3 -144 16 -30
        68 -50 133 -50 78 0 133 24 147 63 22 64 4 143 -36 153 -13 3 -24 10 -24 15 0
        14 -152 9 -180 -7z"/>
        <path d="M370 1404 c-19 -7 -45 -13 -57 -13 -12 -1 -24 -5 -27 -10 -3 -5 -26
        -12 -51 -15 l-45 -7 0 -68 c0 -76 -9 -91 -57 -91 l-33 0 0 -90 0 -90 34 0 c18
        0 38 -6 44 -13 6 -7 12 -89 14 -197 4 -205 10 -228 72 -265 81 -49 235 -62
        336 -27 60 21 56 11 52 121 l-2 48 -67 -4 c-58 -5 -72 -2 -93 15 -24 19 -25
        26 -28 147 -5 184 -10 175 98 175 l90 0 0 90 0 89 -92 3 -93 3 -3 108 -3 107
        -27 -1 c-15 -1 -43 -7 -62 -15z"/>
        <path d="M1385 1204 c-11 -3 -34 -12 -52 -20 -17 -8 -36 -14 -42 -14 -6 0 -11
        -4 -11 -10 0 -5 -6 -10 -14 -10 -21 0 -95 -86 -118 -138 -18 -38 -22 -67 -22
        -157 0 -129 15 -174 85 -247 74 -77 158 -108 294 -108 131 0 223 30 289 94 24
        24 56 81 56 100 0 7 -35 22 -77 35 -43 12 -87 26 -98 31 -11 5 -32 11 -47 14
        -23 5 -28 3 -28 -13 0 -10 -13 -33 -29 -50 -39 -42 -88 -43 -133 -2 l-33 29 0
        114 c0 104 2 115 23 140 27 30 78 43 114 29 15 -6 31 -26 43 -54 17 -43 20
        -45 49 -40 17 3 33 9 36 13 3 4 23 10 45 14 22 4 45 11 50 16 6 4 27 10 48 14
        20 4 37 13 37 20 0 51 -92 157 -148 171 -15 4 -30 11 -33 17 -7 11 -249 21
        -284 12z"/>
        <path d="M740 855 l0 -345 135 0 135 0 0 345 0 345 -135 0 -135 0 0 -345z"/>
    </g>
</svg>
